<?xml version="1.0" encoding="utf-8"?>
<svg contentScriptType="text/ecmascript" xmlns:xlink="http://www.w3.org/1999/xlink" zoomAndPan="magnify" contentStyleType="text/css" width="461.0" height="432.0" viewBox="91.0 47.0 461.0 432.0" xmlns:cacoo="http://cacoo.com/" preserveAspectRatio="xMidYMin meet" xmlns="http://www.w3.org/2000/svg" version="1.1"><defs><marker refX="14.0" refY="7.0" markerUnits="userSpaceOnUse" orient="auto" id="id8" markerHeight="14.0" viewBox="0 0 14.0 14.0" preserveAspectRatio="xMidYMid meet" markerWidth="14.0" overflow="visible"><path fill="none" d="M0 0 L14.0 7.0 L0 14.0" stroke-width="1.0" stroke-linejoin="round" stroke-linecap="round" stroke="#000000"/></marker><marker refX="14.0" refY="7.0" markerUnits="userSpaceOnUse" orient="auto" id="id9" markerHeight="14.0" viewBox="0 0 14.0 14.0" preserveAspectRatio="xMidYMid meet" markerWidth="14.0" overflow="visible"><path fill="none" d="M0 0 L14.0 7.0 L0 14.0" stroke-width="1.0" stroke-linejoin="round" stroke-linecap="round" stroke="#000000"/></marker><marker refX="14.0" refY="7.0" markerUnits="userSpaceOnUse" orient="auto" id="id10" markerHeight="14.0" viewBox="0 0 14.0 14.0" preserveAspectRatio="xMidYMid meet" markerWidth="14.0" overflow="visible"><path fill="none" d="M0 0 L14.0 7.0 L0 14.0" stroke-width="1.0" stroke-linejoin="round" stroke-linecap="round" stroke="#000000"/></marker></defs><g><g transform="translate(133.0 264.0)"><path fill="#ffffff" fill-opacity="1.0" d="M403.99999999999994 84.00000000000001 L0.0 84.00000000000001 L0.0 0.0 L403.99999999999994 0.0 L403.99999999999994 84.00000000000001z" stroke-width="1.0" stroke-linejoin="round" stroke="#000000"/><g transform="translate(1.0 1.0)"><clipPath id="id0"><path d="M0 0 L402.0 0 L402.0 82.0 L0 82.0z"/></clipPath><text font-size="24" clip-path="url(#id0)" text-decoration="none" fill="#000000" font-family="Arial,Arial" font-style="normal" font-weight="normal"><tspan x="160.0" xml:space="preserve" y="63.0" textLength="81.0">lxc host</tspan></text></g></g><g transform="translate(133.0 419.0)"><path fill="#ffffff" fill-opacity="1.0" d="M403.99999999999994 44.99999999999999 L0.0 44.99999999999999 L0.0 0.0 L403.99999999999994 0.0 L403.99999999999994 44.99999999999999z" stroke-width="1.0" stroke-linejoin="round" stroke="#000000"/><g transform="translate(1.0 1.0)"><clipPath id="id1"><path d="M0 0 L402.0 0 L402.0 43.0 L0 43.0z"/></clipPath><text font-size="24" clip-path="url(#id1)" text-decoration="none" fill="#000000" font-family="Arial,Arial" font-style="normal" font-weight="normal"><tspan x="80.0" xml:space="preserve" y="30.0" textLength="241.0">Mac OS X or Windows</tspan></text></g></g><g transform="translate(133.0 362.0)"><path fill="#ffffff" fill-opacity="1.0" d="M403.99999999999994 44.99999999999999 L0.0 44.99999999999999 L0.0 0.0 L403.99999999999994 0.0 L403.99999999999994 44.99999999999999z" stroke-width="1.0" stroke-linejoin="round" stroke="#000000"/><g transform="translate(1.0 1.0)"><clipPath id="id2"><path d="M0 0 L402.0 0 L402.0 43.0 L0 43.0z"/></clipPath><text font-size="24" clip-path="url(#id2)" text-decoration="none" fill="#000000" font-family="Arial,Arial" font-style="normal" font-weight="normal"><tspan x="91.0" xml:space="preserve" y="30.0" textLength="220.0">VirtualBox + Vagrant</tspan></text></g></g><g transform="translate(133.0 86.0)"><path fill="#ffffff" fill-opacity="1.0" d="M150.99999999999983 114.99999999999987 L0.0 114.99999999999987 L0.0 0.0 L150.99999999999983 0.0 L150.99999999999983 114.99999999999987z" stroke-width="1.0" stroke-linejoin="round" stroke="#000000"/><g transform="translate(1.0 1.0)"><clipPath id="id3"><path d="M0 0 L149.0 0 L149.0 113.0 L0 113.0z"/></clipPath><text font-size="24" clip-path="url(#id3)" text-decoration="none" fill="#000000" font-family="Arial,Arial" font-style="normal" font-weight="normal"><tspan x="7.0" xml:space="preserve" y="65.0" textLength="141.0">lxc container </tspan><tspan x="61.0" xml:space="preserve" y="92.0" textLength="26.0">#1</tspan></text></g></g><g transform="translate(386.0 86.0)"><path fill="#ffffff" fill-opacity="1.0" d="M150.99999999999983 114.99999999999987 L0.0 114.99999999999987 L0.0 0.0 L150.99999999999983 0.0 L150.99999999999983 114.99999999999987z" stroke-width="1.0" stroke-linejoin="round" stroke="#000000"/><g transform="translate(1.0 1.0)"><clipPath id="id4"><path d="M0 0 L149.0 0 L149.0 113.0 L0 113.0z"/></clipPath><text font-size="24" clip-path="url(#id4)" text-decoration="none" fill="#000000" font-family="Arial,Arial" font-style="normal" font-weight="normal"><tspan x="7.0" xml:space="preserve" y="65.0" textLength="141.0">lxc container </tspan><tspan x="61.0" xml:space="preserve" y="92.0" textLength="26.0">#2</tspan></text></g></g><g transform="translate(416.5 97.0)"><path fill="#d4e1f5" fill-opacity="1.0" d="M90.00000000000007 15.0 Q90.00000000000007 30.0 75.00000000000007 30.0 L15.0 30.0 Q0.0 30.0 0.0 15.0 L0.0 15.0 Q0.0 0.0 15.0 0.0 L75.00000000000007 0.0 Q90.00000000000007 0.0 90.00000000000007 15.0 L90.00000000000007 15.0 L90.00000000000007 15.0z" stroke-width="1.0" stroke-linejoin="round" stroke="#000000"/><g transform="translate(1.0 1.0)"><clipPath id="id5"><path d="M0 0 L88.0 0 L88.0 28.0 L0 28.0z"/></clipPath><text font-size="24" clip-path="url(#id5)" text-decoration="none" fill="#000000" font-family="Arial,Arial" font-style="normal" font-weight="normal"><tspan x="15.0" xml:space="preserve" y="22.5" textLength="57.0">nginx</tspan></text></g></g><g transform="translate(163.5 97.0)"><path fill="#d4e1f5" fill-opacity="1.0" d="M90.00000000000007 15.0 Q90.00000000000007 30.0 75.00000000000007 30.0 L15.0 30.0 Q0.0 30.0 0.0 15.0 L0.0 15.0 Q0.0 0.0 15.0 0.0 L75.00000000000007 0.0 Q90.00000000000007 0.0 90.00000000000007 15.0 L90.00000000000007 15.0 L90.00000000000007 15.0z" stroke-width="1.0" stroke-linejoin="round" stroke="#000000"/><g transform="translate(1.0 1.0)"><clipPath id="id6"><path d="M0 0 L88.0 0 L88.0 28.0 L0 28.0z"/></clipPath><text font-size="24" clip-path="url(#id6)" text-decoration="none" fill="#000000" font-family="Arial,Arial" font-style="normal" font-weight="normal"><tspan x="15.0" xml:space="preserve" y="22.5" textLength="57.0">nginx</tspan></text></g></g><g transform="translate(290.0 270.0)"><path fill="#d4e1f5" fill-opacity="1.0" d="M90.00000000000007 15.0 Q90.00000000000007 30.0 75.00000000000007 30.0 L15.0 30.0 Q0.0 30.0 0.0 15.0 L0.0 15.0 Q0.0 0.0 15.0 0.0 L75.00000000000007 0.0 Q90.00000000000007 0.0 90.00000000000007 15.0 L90.00000000000007 15.0 L90.00000000000007 15.0z" stroke-width="1.0" stroke-linejoin="round" stroke="#000000"/><g transform="translate(1.0 1.0)"><clipPath id="id7"><path d="M0 0 L88.0 0 L88.0 28.0 L0 28.0z"/></clipPath><text font-size="24" clip-path="url(#id7)" text-decoration="none" fill="#000000" font-family="Arial,Arial" font-style="normal" font-weight="normal"><tspan x="15.0" xml:space="preserve" y="22.5" textLength="57.0">nginx</tspan></text></g></g><path fill="none" marker-end="url(#id8)" d="M106.0 285.0 L290.0 285.0" stroke-width="1.0" stroke-linejoin="round" stroke="#000000"/><path fill="none" marker-end="url(#id9)" d="M312.5 270.0 L312.5 122.0 Q312.5 112.0 302.5 112.0 L253.50000000000006 112.0" stroke-width="1.0" stroke-linejoin="round" stroke="#000000"/><path fill="none" marker-end="url(#id10)" d="M357.5 270.0 L357.5 122.0 Q357.5 112.0 367.5 112.0 L416.5 112.0" stroke-width="1.0" stroke-linejoin="round" stroke="#000000"/><g transform="translate(133.0 62.0)"><clipPath id="id11"><path d="M0 0 L182.0 0 L182.0 24.0 L0 24.0z"/></clipPath><text font-size="14" clip-path="url(#id11)" text-decoration="none" fill="#000000" font-family="Arial,Arial" font-style="normal" font-weight="normal"><tspan x="2.0" xml:space="preserve" y="15.0" textLength="172.0">http://c1.192.168.33.2.xip.io</tspan></text></g><g transform="translate(358.0 62.0)"><clipPath id="id12"><path d="M0 0 L179.0 0 L179.0 24.0 L0 24.0z"/></clipPath><text font-size="14" clip-path="url(#id12)" text-decoration="none" fill="#000000" font-family="Arial,Arial" font-style="normal" font-weight="normal"><tspan x="2.0" xml:space="preserve" y="15.0" textLength="172.0">http://c2.192.168.33.2.xip.io</tspan></text></g><g transform="translate(133.0 240.0)"><clipPath id="id13"><path d="M0 0 L92.0 0 L92.0 24.0 L0 24.0z"/></clipPath><text font-size="14" clip-path="url(#id13)" text-decoration="none" fill="#000000" font-family="Arial,Arial" font-style="normal" font-weight="normal"><tspan x="2.0" xml:space="preserve" y="15.0" textLength="81.0">192.168.33.2</tspan></text></g><g transform="translate(133.0 201.0)"><clipPath id="id14"><path d="M0 0 L112.0 0 L112.0 22.0 L0 22.0z"/></clipPath><text font-size="14" clip-path="url(#id14)" text-decoration="none" fill="#000000" font-family="Arial,Arial" font-style="normal" font-weight="normal"><tspan x="2.0" xml:space="preserve" y="15.0" textLength="101.0">10.0.3.* (DHCP)</tspan></text></g><g transform="translate(425.0 201.0)"><clipPath id="id15"><path d="M0 0 L112.0 0 L112.0 22.0 L0 22.0z"/></clipPath><text font-size="14" clip-path="url(#id15)" text-decoration="none" fill="#000000" font-family="Arial,Arial" font-style="normal" font-weight="normal"><tspan x="2.0" xml:space="preserve" y="15.0" textLength="101.0">10.0.3.* (DHCP)</tspan></text></g></g></svg>
<svg contentScriptType="text/ecmascript" xmlns:xlink="http://www.w3.org/1999/xlink" zoomAndPan="magnify" contentStyleType="text/css" viewBox="91.0 47.0 461.0 432.0" xmlns:cacoo="http://cacoo.com/" preserveAspectRatio="xMidYMin meet" xmlns="http://www.w3.org/2000/svg" version="1.1"><defs><marker refX="14.0" refY="7.0" markerUnits="userSpaceOnUse" orient="auto" id="id8" markerHeight="14.0" viewBox="0 0 14.0 14.0" preserveAspectRatio="xMidYMid meet" markerWidth="14.0" overflow="visible"><path fill="none" d="M0 0 L14.0 7.0 L0 14.0" stroke-width="1.0" stroke-linejoin="round" stroke-linecap="round" stroke="#000000"/></marker><marker refX="14.0" refY="7.0" markerUnits="userSpaceOnUse" orient="auto" id="id9" markerHeight="14.0" viewBox="0 0 14.0 14.0" preserveAspectRatio="xMidYMid meet" markerWidth="14.0" overflow="visible"><path fill="none" d="M0 0 L14.0 7.0 L0 14.0" stroke-width="1.0" stroke-linejoin="round" stroke-linecap="round" stroke="#000000"/></marker><marker refX="14.0" refY="7.0" markerUnits="userSpaceOnUse" orient="auto" id="id10" markerHeight="14.0" viewBox="0 0 14.0 14.0" preserveAspectRatio="xMidYMid meet" markerWidth="14.0" overflow="visible"><path fill="none" d="M0 0 L14.0 7.0 L0 14.0" stroke-width="1.0" stroke-linejoin="round" stroke-linecap="round" stroke="#000000"/></marker></defs><g><g transform="translate(133.0 264.0)"><path fill="#ffffff" fill-opacity="1.0" d="M403.99999999999994 84.00000000000001 L0.0 84.00000000000001 L0.0 0.0 L403.99999999999994 0.0 L403.99999999999994 84.00000000000001z" stroke-width="1.0" stroke-linejoin="round" stroke="#000000"/><g transform="translate(1.0 1.0)"><clipPath id="id0"><path d="M0 0 L402.0 0 L402.0 82.0 L0 82.0z"/></clipPath><text font-size="24" clip-path="url(#id0)" text-decoration="none" fill="#000000" font-family="Arial,Arial" font-style="normal" font-weight="normal"><tspan x="160.0" xml:space="preserve" y="63.0" textLength="81.0">lxc host</tspan></text></g></g><g transform="translate(133.0 419.0)"><path fill="#ffffff" fill-opacity="1.0" d="M403.99999999999994 44.99999999999999 L0.0 44.99999999999999 L0.0 0.0 L403.99999999999994 0.0 L403.99999999999994 44.99999999999999z" stroke-width="1.0" stroke-linejoin="round" stroke="#000000"/><g transform="translate(1.0 1.0)"><clipPath id="id1"><path d="M0 0 L402.0 0 L402.0 43.0 L0 43.0z"/></clipPath><text font-size="24" clip-path="url(#id1)" text-decoration="none" fill="#000000" font-family="Arial,Arial" font-style="normal" font-weight="normal"><tspan x="80.0" xml:space="preserve" y="30.0" textLength="241.0">Mac OS X or Windows</tspan></text></g></g><g transform="translate(133.0 362.0)"><path fill="#ffffff" fill-opacity="1.0" d="M403.99999999999994 44.99999999999999 L0.0 44.99999999999999 L0.0 0.0 L403.99999999999994 0.0 L403.99999999999994 44.99999999999999z" stroke-width="1.0" stroke-linejoin="round" stroke="#000000"/><g transform="translate(1.0 1.0)"><clipPath id="id2"><path d="M0 0 L402.0 0 L402.0 43.0 L0 43.0z"/></clipPath><text font-size="24" clip-path="url(#id2)" text-decoration="none" fill="#000000" font-family="Arial,Arial" font-style="normal" font-weight="normal"><tspan x="91.0" xml:space="preserve" y="30.0" textLength="220.0">VirtualBox + Vagrant</tspan></text></g></g><g transform="translate(133.0 86.0)"><path fill="#ffffff" fill-opacity="1.0" d="M150.99999999999983 114.99999999999987 L0.0 114.99999999999987 L0.0 0.0 L150.99999999999983 0.0 L150.99999999999983 114.99999999999987z" stroke-width="1.0" stroke-linejoin="round" stroke="#000000"/><g transform="translate(1.0 1.0)"><clipPath id="id3"><path d="M0 0 L149.0 0 L149.0 113.0 L0 113.0z"/></clipPath><text font-size="24" clip-path="url(#id3)" text-decoration="none" fill="#000000" font-family="Arial,Arial" font-style="normal" font-weight="normal"><tspan x="7.0" xml:space="preserve" y="65.0" textLength="141.0">lxc container </tspan><tspan x="61.0" xml:space="preserve" y="92.0" textLength="26.0">#1</tspan></text></g></g><g transform="translate(386.0 86.0)"><path fill="#ffffff" fill-opacity="1.0" d="M150.99999999999983 114.99999999999987 L0.0 114.99999999999987 L0.0 0.0 L150.99999999999983 0.0 L150.99999999999983 114.99999999999987z" stroke-width="1.0" stroke-linejoin="round" stroke="#000000"/><g transform="translate(1.0 1.0)"><clipPath id="id4"><path d="M0 0 L149.0 0 L149.0 113.0 L0 113.0z"/></clipPath><text font-size="24" clip-path="url(#id4)" text-decoration="none" fill="#000000" font-family="Arial,Arial" font-style="normal" font-weight="normal"><tspan x="7.0" xml:space="preserve" y="65.0" textLength="141.0">lxc container </tspan><tspan x="61.0" xml:space="preserve" y="92.0" textLength="26.0">#2</tspan></text></g></g><g transform="translate(416.5 97.0)"><path fill="#d4e1f5" fill-opacity="1.0" d="M90.00000000000007 15.0 Q90.00000000000007 30.0 75.00000000000007 30.0 L15.0 30.0 Q0.0 30.0 0.0 15.0 L0.0 15.0 Q0.0 0.0 15.0 0.0 L75.00000000000007 0.0 Q90.00000000000007 0.0 90.00000000000007 15.0 L90.00000000000007 15.0 L90.00000000000007 15.0z" stroke-width="1.0" stroke-linejoin="round" stroke="#000000"/><g transform="translate(1.0 1.0)"><clipPath id="id5"><path d="M0 0 L88.0 0 L88.0 28.0 L0 28.0z"/></clipPath><text font-size="24" clip-path="url(#id5)" text-decoration="none" fill="#000000" font-family="Arial,Arial" font-style="normal" font-weight="normal"><tspan x="15.0" xml:space="preserve" y="22.5" textLength="57.0">nginx</tspan></text></g></g><g transform="translate(163.5 97.0)"><path fill="#d4e1f5" fill-opacity="1.0" d="M90.00000000000007 15.0 Q90.00000000000007 30.0 75.00000000000007 30.0 L15.0 30.0 Q0.0 30.0 0.0 15.0 L0.0 15.0 Q0.0 0.0 15.0 0.0 L75.00000000000007 0.0 Q90.00000000000007 0.0 90.00000000000007 15.0 L90.00000000000007 15.0 L90.00000000000007 15.0z" stroke-width="1.0" stroke-linejoin="round" stroke="#000000"/><g transform="translate(1.0 1.0)"><clipPath id="id6"><path d="M0 0 L88.0 0 L88.0 28.0 L0 28.0z"/></clipPath><text font-size="24" clip-path="url(#id6)" text-decoration="none" fill="#000000" font-family="Arial,Arial" font-style="normal" font-weight="normal"><tspan x="15.0" xml:space="preserve" y="22.5" textLength="57.0">nginx</tspan></text></g></g><g transform="translate(290.0 270.0)"><path fill="#d4e1f5" fill-opacity="1.0" d="M90.00000000000007 15.0 Q90.00000000000007 30.0 75.00000000000007 30.0 L15.0 30.0 Q0.0 30.0 0.0 15.0 L0.0 15.0 Q0.0 0.0 15.0 0.0 L75.00000000000007 0.0 Q90.00000000000007 0.0 90.00000000000007 15.0 L90.00000000000007 15.0 L90.00000000000007 15.0z" stroke-width="1.0" stroke-linejoin="round" stroke="#000000"/><g transform="translate(1.0 1.0)"><clipPath id="id7"><path d="M0 0 L88.0 0 L88.0 28.0 L0 28.0z"/></clipPath><text font-size="24" clip-path="url(#id7)" text-decoration="none" fill="#000000" font-family="Arial,Arial" font-style="normal" font-weight="normal"><tspan x="15.0" xml:space="preserve" y="22.5" textLength="57.0">nginx</tspan></text></g></g><path fill="none" marker-end="url(#id8)" d="M106.0 285.0 L290.0 285.0" stroke-width="1.0" stroke-linejoin="round" stroke="#000000"/><path fill="none" marker-end="url(#id9)" d="M312.5 270.0 L312.5 122.0 Q312.5 112.0 302.5 112.0 L253.50000000000006 112.0" stroke-width="1.0" stroke-linejoin="round" stroke="#000000"/><path fill="none" marker-end="url(#id10)" d="M357.5 270.0 L357.5 122.0 Q357.5 112.0 367.5 112.0 L416.5 112.0" stroke-width="1.0" stroke-linejoin="round" stroke="#000000"/><g transform="translate(133.0 62.0)"><clipPath id="id11"><path d="M0 0 L182.0 0 L182.0 24.0 L0 24.0z"/></clipPath><text font-size="14" clip-path="url(#id11)" text-decoration="none" fill="#000000" font-family="Arial,Arial" font-style="normal" font-weight="normal"><tspan x="2.0" xml:space="preserve" y="15.0" textLength="172.0">http://c1.192.168.33.2.xip.io</tspan></text></g><g transform="translate(358.0 62.0)"><clipPath id="id12"><path d="M0 0 L179.0 0 L179.0 24.0 L0 24.0z"/></clipPath><text font-size="14" clip-path="url(#id12)" text-decoration="none" fill="#000000" font-family="Arial,Arial" font-style="normal" font-weight="normal"><tspan x="2.0" xml:space="preserve" y="15.0" textLength="172.0">http://c2.192.168.33.2.xip.io</tspan></text></g><g transform="translate(133.0 240.0)"><clipPath id="id13"><path d="M0 0 L92.0 0 L92.0 24.0 L0 24.0z"/></clipPath><text font-size="14" clip-path="url(#id13)" text-decoration="none" fill="#000000" font-family="Arial,Arial" font-style="normal" font-weight="normal"><tspan x="2.0" xml:space="preserve" y="15.0" textLength="81.0">192.168.33.2</tspan></text></g><g transform="translate(133.0 201.0)"><clipPath id="id14"><path d="M0 0 L112.0 0 L112.0 22.0 L0 22.0z"/></clipPath><text font-size="14" clip-path="url(#id14)" text-decoration="none" fill="#000000" font-family="Arial,Arial" font-style="normal" font-weight="normal"><tspan x="2.0" xml:space="preserve" y="15.0" textLength="101.0">10.0.3.* (DHCP)</tspan></text></g><g transform="translate(425.0 201.0)"><clipPath id="id15"><path d="M0 0 L112.0 0 L112.0 22.0 L0 22.0z"/></clipPath><text font-size="14" clip-path="url(#id15)" text-decoration="none" fill="#000000" font-family="Arial,Arial" font-style="normal" font-weight="normal"><tspan x="2.0" xml:space="preserve" y="15.0" textLength="101.0">10.0.3.* (DHCP)</tspan></text></g></g></svg>
<svg contentScriptType="text/ecmascript" xmlns:xlink="http://www.w3.org/1999/xlink" zoomAndPan="magnify" contentStyleType="text/css" viewBox="91.0 47.0 461.0 432.0" xmlns:cacoo="http://cacoo.com/" preserveAspectRatio="xMidYMin meet" xmlns="http://www.w3.org/2000/svg" version="1.1"><defs><marker refX="14.0" refY="7.0" markerUnits="userSpaceOnUse" orient="auto" id="id8" markerHeight="14.0" viewBox="0 0 14.0 14.0" preserveAspectRatio="xMidYMid meet" markerWidth="14.0" overflow="visible"><path fill="none" d="M0 0 L14.0 7.0 L0 14.0" stroke-width="1.0" stroke-linejoin="round" stroke-linecap="round" stroke="#000000"/></marker><marker refX="14.0" refY="7.0" markerUnits="userSpaceOnUse" orient="auto" id="id9" markerHeight="14.0" viewBox="0 0 14.0 14.0" preserveAspectRatio="xMidYMid meet" markerWidth="14.0" overflow="visible"><path fill="none" d="M0 0 L14.0 7.0 L0 14.0" stroke-width="1.0" stroke-linejoin="round" stroke-linecap="round" stroke="#000000"/></marker><marker refX="14.0" refY="7.0" markerUnits="userSpaceOnUse" orient="auto" id="id10" markerHeight="14.0" viewBox="0 0 14.0 14.0" preserveAspectRatio="xMidYMid meet" markerWidth="14.0" overflow="visible"><path fill="none" d="M0 0 L14.0 7.0 L0 14.0" stroke-width="1.0" stroke-linejoin="round" stroke-linecap="round" stroke="#000000"/></marker></defs><g><g transform="translate(133.0 264.0)"><path fill="#ffffff" fill-opacity="1.0" d="M403.99999999999994 84.00000000000001 L0.0 84.00000000000001 L0.0 0.0 L403.99999999999994 0.0 L403.99999999999994 84.00000000000001z" stroke-width="1.0" stroke-linejoin="round" stroke="#000000"/><g transform="translate(1.0 1.0)"><clipPath id="id0"><path d="M0 0 L402.0 0 L402.0 82.0 L0 82.0z"/></clipPath><text font-size="24" clip-path="url(#id0)" text-decoration="none" fill="#000000" font-family="Arial,Arial" font-style="normal" font-weight="normal"><tspan x="160.0" xml:space="preserve" y="63.0" textLength="81.0">lxc host</tspan></text></g></g><g transform="translate(133.0 419.0)"><path fill="#ffffff" fill-opacity="1.0" d="M403.99999999999994 44.99999999999999 L0.0 44.99999999999999 L0.0 0.0 L403.99999999999994 0.0 L403.99999999999994 44.99999999999999z" stroke-width="1.0" stroke-linejoin="round" stroke="#000000"/><g transform="translate(1.0 1.0)"><clipPath id="id1"><path d="M0 0 L402.0 0 L402.0 43.0 L0 43.0z"/></clipPath><text font-size="24" clip-path="url(#id1)" text-decoration="none" fill="#000000" font-family="Arial,Arial" font-style="normal" font-weight="normal"><tspan x="80.0" xml:space="preserve" y="30.0" textLength="241.0">Mac OS X or Windows</tspan></text></g></g><g transform="translate(133.0 362.0)"><path fill="#ffffff" fill-opacity="1.0" d="M403.99999999999994 44.99999999999999 L0.0 44.99999999999999 L0.0 0.0 L403.99999999999994 0.0 L403.99999999999994 44.99999999999999z" stroke-width="1.0" stroke-linejoin="round" stroke="#000000"/><g transform="translate(1.0 1.0)"><clipPath id="id2"><path d="M0 0 L402.0 0 L402.0 43.0 L0 43.0z"/></clipPath><text font-size="24" clip-path="url(#id2)" text-decoration="none" fill="#000000" font-family="Arial,Arial" font-style="normal" font-weight="normal"><tspan x="91.0" xml:space="preserve" y="30.0" textLength="220.0">VirtualBox + Vagrant</tspan></text></g></g><g transform="translate(133.0 86.0)"><path fill="#ffffff" fill-opacity="1.0" d="M150.99999999999983 114.99999999999987 L0.0 114.99999999999987 L0.0 0.0 L150.99999999999983 0.0 L150.99999999999983 114.99999999999987z" stroke-width="1.0" stroke-linejoin="round" stroke="#000000"/><g transform="translate(1.0 1.0)"><clipPath id="id3"><path d="M0 0 L149.0 0 L149.0 113.0 L0 113.0z"/></clipPath><text font-size="24" clip-path="url(#id3)" text-decoration="none" fill="#000000" font-family="Arial,Arial" font-style="normal" font-weight="normal"><tspan x="7.0" xml:space="preserve" y="65.0" textLength="141.0">lxc container </tspan><tspan x="61.0" xml:space="preserve" y="92.0" textLength="26.0">#1</tspan></text></g></g><g transform="translate(386.0 86.0)"><path fill="#ffffff" fill-opacity="1.0" d="M150.99999999999983 114.99999999999987 L0.0 114.99999999999987 L0.0 0.0 L150.99999999999983 0.0 L150.99999999999983 114.99999999999987z" stroke-width="1.0" stroke-linejoin="round" stroke="#000000"/><g transform="translate(1.0 1.0)"><clipPath id="id4"><path d="M0 0 L149.0 0 L149.0 113.0 L0 113.0z"/></clipPath><text font-size="24" clip-path="url(#id4)" text-decoration="none" fill="#000000" font-family="Arial,Arial" font-style="normal" font-weight="normal"><tspan x="7.0" xml:space="preserve" y="65.0" textLength="141.0">lxc container </tspan><tspan x="61.0" xml:space="preserve" y="92.0" textLength="26.0">#2</tspan></text></g></g><g transform="translate(416.5 97.0)"><path fill="#d4e1f5" fill-opacity="1.0" d="M90.00000000000007 15.0 Q90.00000000000007 30.0 75.00000000000007 30.0 L15.0 30.0 Q0.0 30.0 0.0 15.0 L0.0 15.0 Q0.0 0.0 15.0 0.0 L75.00000000000007 0.0 Q90.00000000000007 0.0 90.00000000000007 15.0 L90.00000000000007 15.0 L90.00000000000007 15.0z" stroke-width="1.0" stroke-linejoin="round" stroke="#000000"/><g transform="translate(1.0 1.0)"><clipPath id="id5"><path d="M0 0 L88.0 0 L88.0 28.0 L0 28.0z"/></clipPath><text font-size="24" clip-path="url(#id5)" text-decoration="none" fill="#000000" font-family="Arial,Arial" font-style="normal" font-weight="normal"><tspan x="15.0" xml:space="preserve" y="22.5" textLength="57.0">nginx</tspan></text></g></g><g transform="translate(163.5 97.0)"><path fill="#d4e1f5" fill-opacity="1.0" d="M90.00000000000007 15.0 Q90.00000000000007 30.0 75.00000000000007 30.0 L15.0 30.0 Q0.0 30.0 0.0 15.0 L0.0 15.0 Q0.0 0.0 15.0 0.0 L75.00000000000007 0.0 Q90.00000000000007 0.0 90.00000000000007 15.0 L90.00000000000007 15.0 L90.00000000000007 15.0z" stroke-width="1.0" stroke-linejoin="round" stroke="#000000"/><g transform="translate(1.0 1.0)"><clipPath id="id6"><path d="M0 0 L88.0 0 L88.0 28.0 L0 28.0z"/></clipPath><text font-size="24" clip-path="url(#id6)" text-decoration="none" fill="#000000" font-family="Arial,Arial" font-style="normal" font-weight="normal"><tspan x="15.0" xml:space="preserve" y="22.5" textLength="57.0">nginx</tspan></text></g></g><g transform="translate(290.0 270.0)"><path fill="#d4e1f5" fill-opacity="1.0" d="M90.00000000000007 15.0 Q90.00000000000007 30.0 75.00000000000007 30.0 L15.0 30.0 Q0.0 30.0 0.0 15.0 L0.0 15.0 Q0.0 0.0 15.0 0.0 L75.00000000000007 0.0 Q90.00000000000007 0.0 90.00000000000007 15.0 L90.00000000000007 15.0 L90.00000000000007 15.0z" stroke-width="1.0" stroke-linejoin="round" stroke="#000000"/><g transform="translate(1.0 1.0)"><clipPath id="id7"><path d="M0 0 L88.0 0 L88.0 28.0 L0 28.0z"/></clipPath><text font-size="24" clip-path="url(#id7)" text-decoration="none" fill="#000000" font-family="Arial,Arial" font-style="normal" font-weight="normal"><tspan x="15.0" xml:space="preserve" y="22.5" textLength="57.0">nginx</tspan></text></g></g><path fill="none" marker-end="url(#id8)" d="M106.0 285.0 L290.0 285.0" stroke-width="1.0" stroke-linejoin="round" stroke="#000000"/><path fill="none" marker-end="url(#id9)" d="M312.5 270.0 L312.5 122.0 Q312.5 112.0 302.5 112.0 L253.50000000000006 112.0" stroke-width="1.0" stroke-linejoin="round" stroke="#000000"/><path fill="none" marker-end="url(#id10)" d="M357.5 270.0 L357.5 122.0 Q357.5 112.0 367.5 112.0 L416.5 112.0" stroke-width="1.0" stroke-linejoin="round" stroke="#000000"/><g transform="translate(133.0 62.0)"><clipPath id="id11"><path d="M0 0 L182.0 0 L182.0 24.0 L0 24.0z"/></clipPath><text font-size="14" clip-path="url(#id11)" text-decoration="none" fill="#000000" font-family="Arial,Arial" font-style="normal" font-weight="normal"><tspan x="2.0" xml:space="preserve" y="15.0" textLength="172.0">http://c1.192.168.33.2.xip.io</tspan></text></g><g transform="translate(358.0 62.0)"><clipPath id="id12"><path d="M0 0 L179.0 0 L179.0 24.0 L0 24.0z"/></clipPath><text font-size="14" clip-path="url(#id12)" text-decoration="none" fill="#000000" font-family="Arial,Arial" font-style="normal" font-weight="normal"><tspan x="2.0" xml:space="preserve" y="15.0" textLength="172.0">http://c2.192.168.33.2.xip.io</tspan></text></g><g transform="translate(133.0 240.0)"><clipPath id="id13"><path d="M0 0 L92.0 0 L92.0 24.0 L0 24.0z"/></clipPath><text font-size="14" clip-path="url(#id13)" text-decoration="none" fill="#000000" font-family="Arial,Arial" font-style="normal" font-weight="normal"><tspan x="2.0" xml:space="preserve" y="15.0" textLength="81.0">192.168.33.2</tspan></text></g><g transform="translate(133.0 201.0)"><clipPath id="id14"><path d="M0 0 L112.0 0 L112.0 22.0 L0 22.0z"/></clipPath><text font-size="14" clip-path="url(#id14)" text-decoration="none" fill="#000000" font-family="Arial,Arial" font-style="normal" font-weight="normal"><tspan x="2.0" xml:space="preserve" y="15.0" textLength="101.0">10.0.3.* (DHCP)</tspan></text></g><g transform="translate(425.0 201.0)"><clipPath id="id15"><path d="M0 0 L112.0 0 L112.0 22.0 L0 22.0z"/></clipPath><text font-size="14" clip-path="url(#id15)" text-decoration="none" fill="#000000" font-family="Arial,Arial" font-style="normal" font-weight="normal"><tspan x="2.0" xml:space="preserve" y="15.0" textLength="101.0">10.0.3.* (DHCP)</tspan></text></g></g></svg>
<svg contentScriptType="text/ecmascript" xmlns:xlink="http://www.w3.org/1999/xlink" zoomAndPan="magnify" contentStyleType="text/css" viewBox="91.0 47.0 461.0 432.0" xmlns:cacoo="http://cacoo.com/" preserveAspectRatio="xMidYMin meet" xmlns="http://www.w3.org/2000/svg" version="1.1"><defs><marker refX="14.0" refY="7.0" markerUnits="userSpaceOnUse" orient="auto" id="id8" markerHeight="14.0" viewBox="0 0 14.0 14.0" preserveAspectRatio="xMidYMid meet" markerWidth="14.0" overflow="visible"><path fill="none" d="M0 0 L14.0 7.0 L0 14.0" stroke-width="1.0" stroke-linejoin="round" stroke-linecap="round" stroke="#000000"/></marker><marker refX="14.0" refY="7.0" markerUnits="userSpaceOnUse" orient="auto" id="id9" markerHeight="14.0" viewBox="0 0 14.0 14.0" preserveAspectRatio="xMidYMid meet" markerWidth="14.0" overflow="visible"><path fill="none" d="M0 0 L14.0 7.0 L0 14.0" stroke-width="1.0" stroke-linejoin="round" stroke-linecap="round" stroke="#000000"/></marker><marker refX="14.0" refY="7.0" markerUnits="userSpaceOnUse" orient="auto" id="id10" markerHeight="14.0" viewBox="0 0 14.0 14.0" preserveAspectRatio="xMidYMid meet" markerWidth="14.0" overflow="visible"><path fill="none" d="M0 0 L14.0 7.0 L0 14.0" stroke-width="1.0" stroke-linejoin="round" stroke-linecap="round" stroke="#000000"/></marker></defs><g><g transform="translate(133.0 264.0)"><path fill="#ffffff" fill-opacity="1.0" d="M403.99999999999994 84.00000000000001 L0.0 84.00000000000001 L0.0 0.0 L403.99999999999994 0.0 L403.99999999999994 84.00000000000001z" stroke-width="1.0" stroke-linejoin="round" stroke="#000000"/><g transform="translate(1.0 1.0)"><clipPath id="id0"><path d="M0 0 L402.0 0 L402.0 82.0 L0 82.0z"/></clipPath><text font-size="24" clip-path="url(#id0)" text-decoration="none" fill="#000000" font-family="Arial,Arial" font-style="normal" font-weight="normal"><tspan x="160.0" xml:space="preserve" y="63.0" textLength="81.0">lxc host</tspan></text></g></g><g transform="translate(133.0 419.0)"><path fill="#ffffff" fill-opacity="1.0" d="M403.99999999999994 44.99999999999999 L0.0 44.99999999999999 L0.0 0.0 L403.99999999999994 0.0 L403.99999999999994 44.99999999999999z" stroke-width="1.0" stroke-linejoin="round" stroke="#000000"/><g transform="translate(1.0 1.0)"><clipPath id="id1"><path d="M0 0 L402.0 0 L402.0 43.0 L0 43.0z"/></clipPath><text font-size="24" clip-path="url(#id1)" text-decoration="none" fill="#000000" font-family="Arial,Arial" font-style="normal" font-weight="normal"><tspan x="80.0" xml:space="preserve" y="30.0" textLength="241.0">Mac OS X or Windows</tspan></text></g></g><g transform="translate(133.0 362.0)"><path fill="#ffffff" fill-opacity="1.0" d="M403.99999999999994 44.99999999999999 L0.0 44.99999999999999 L0.0 0.0 L403.99999999999994 0.0 L403.99999999999994 44.99999999999999z" stroke-width="1.0" stroke-linejoin="round" stroke="#000000"/><g transform="translate(1.0 1.0)"><clipPath id="id2"><path d="M0 0 L402.0 0 L402.0 43.0 L0 43.0z"/></clipPath><text font-size="24" clip-path="url(#id2)" text-decoration="none" fill="#000000" font-family="Arial,Arial" font-style="normal" font-weight="normal"><tspan x="91.0" xml:space="preserve" y="30.0" textLength="220.0">VirtualBox + Vagrant</tspan></text></g></g><g transform="translate(133.0 86.0)"><path fill="#ffffff" fill-opacity="1.0" d="M150.99999999999983 114.99999999999987 L0.0 114.99999999999987 L0.0 0.0 L150.99999999999983 0.0 L150.99999999999983 114.99999999999987z" stroke-width="1.0" stroke-linejoin="round" stroke="#000000"/><g transform="translate(1.0 1.0)"><clipPath id="id3"><path d="M0 0 L149.0 0 L149.0 113.0 L0 113.0z"/></clipPath><text font-size="24" clip-path="url(#id3)" text-decoration="none" fill="#000000" font-family="Arial,Arial" font-style="normal" font-weight="normal"><tspan x="7.0" xml:space="preserve" y="65.0" textLength="141.0">lxc container </tspan><tspan x="61.0" xml:space="preserve" y="92.0" textLength="26.0">#1</tspan></text></g></g><g transform="translate(386.0 86.0)"><path fill="#ffffff" fill-opacity="1.0" d="M150.99999999999983 114.99999999999987 L0.0 114.99999999999987 L0.0 0.0 L150.99999999999983 0.0 L150.99999999999983 114.99999999999987z" stroke-width="1.0" stroke-linejoin="round" stroke="#000000"/><g transform="translate(1.0 1.0)"><clipPath id="id4"><path d="M0 0 L149.0 0 L149.0 113.0 L0 113.0z"/></clipPath><text font-size="24" clip-path="url(#id4)" text-decoration="none" fill="#000000" font-family="Arial,Arial" font-style="normal" font-weight="normal"><tspan x="7.0" xml:space="preserve" y="65.0" textLength="141.0">lxc container </tspan><tspan x="61.0" xml:space="preserve" y="92.0" textLength="26.0">#2</tspan></text></g></g><g transform="translate(416.5 97.0)"><path fill="#d4e1f5" fill-opacity="1.0" d="M90.00000000000007 15.0 Q90.00000000000007 30.0 75.00000000000007 30.0 L15.0 30.0 Q0.0 30.0 0.0 15.0 L0.0 15.0 Q0.0 0.0 15.0 0.0 L75.00000000000007 0.0 Q90.00000000000007 0.0 90.00000000000007 15.0 L90.00000000000007 15.0 L90.00000000000007 15.0z" stroke-width="1.0" stroke-linejoin="round" stroke="#000000"/><g transform="translate(1.0 1.0)"><clipPath id="id5"><path d="M0 0 L88.0 0 L88.0 28.0 L0 28.0z"/></clipPath><text font-size="24" clip-path="url(#id5)" text-decoration="none" fill="#000000" font-family="Arial,Arial" font-style="normal" font-weight="normal"><tspan x="15.0" xml:space="preserve" y="22.5" textLength="57.0">nginx</tspan></text></g></g><g transform="translate(163.5 97.0)"><path fill="#d4e1f5" fill-opacity="1.0" d="M90.00000000000007 15.0 Q90.00000000000007 30.0 75.00000000000007 30.0 L15.0 30.0 Q0.0 30.0 0.0 15.0 L0.0 15.0 Q0.0 0.0 15.0 0.0 L75.00000000000007 0.0 Q90.00000000000007 0.0 90.00000000000007 15.0 L90.00000000000007 15.0 L90.00000000000007 15.0z" stroke-width="1.0" stroke-linejoin="round" stroke="#000000"/><g transform="translate(1.0 1.0)"><clipPath id="id6"><path d="M0 0 L88.0 0 L88.0 28.0 L0 28.0z"/></clipPath><text font-size="24" clip-path="url(#id6)" text-decoration="none" fill="#000000" font-family="Arial,Arial" font-style="normal" font-weight="normal"><tspan x="15.0" xml:space="preserve" y="22.5" textLength="57.0">nginx</tspan></text></g></g><g transform="translate(290.0 270.0)"><path fill="#d4e1f5" fill-opacity="1.0" d="M90.00000000000007 15.0 Q90.00000000000007 30.0 75.00000000000007 30.0 L15.0 30.0 Q0.0 30.0 0.0 15.0 L0.0 15.0 Q0.0 0.0 15.0 0.0 L75.00000000000007 0.0 Q90.00000000000007 0.0 90.00000000000007 15.0 L90.00000000000007 15.0 L90.00000000000007 15.0z" stroke-width="1.0" stroke-linejoin="round" stroke="#000000"/><g transform="translate(1.0 1.0)"><clipPath id="id7"><path d="M0 0 L88.0 0 L88.0 28.0 L0 28.0z"/></clipPath><text font-size="24" clip-path="url(#id7)" text-decoration="none" fill="#000000" font-family="Arial,Arial" font-style="normal" font-weight="normal"><tspan x="15.0" xml:space="preserve" y="22.5" textLength="57.0">nginx</tspan></text></g></g><path fill="none" marker-end="url(#id8)" d="M106.0 285.0 L290.0 285.0" stroke-width="1.0" stroke-linejoin="round" stroke="#000000"/><path fill="none" marker-end="url(#id9)" d="M312.5 270.0 L312.5 122.0 Q312.5 112.0 302.5 112.0 L253.50000000000006 112.0" stroke-width="1.0" stroke-linejoin="round" stroke="#000000"/><path fill="none" marker-end="url(#id10)" d="M357.5 270.0 L357.5 122.0 Q357.5 112.0 367.5 112.0 L416.5 112.0" stroke-width="1.0" stroke-linejoin="round" stroke="#000000"/><g transform="translate(133.0 62.0)"><clipPath id="id11"><path d="M0 0 L182.0 0 L182.0 24.0 L0 24.0z"/></clipPath><text font-size="14" clip-path="url(#id11)" text-decoration="none" fill="#000000" font-family="Arial,Arial" font-style="normal" font-weight="normal"><tspan x="2.0" xml:space="preserve" y="15.0" textLength="172.0">http://c1.192.168.33.2.xip.io</tspan></text></g><g transform="translate(358.0 62.0)"><clipPath id="id12"><path d="M0 0 L179.0 0 L179.0 24.0 L0 24.0z"/></clipPath><text font-size="14" clip-path="url(#id12)" text-decoration="none" fill="#000000" font-family="Arial,Arial" font-style="normal" font-weight="normal"><tspan x="2.0" xml:space="preserve" y="15.0" textLength="172.0">http://c2.192.168.33.2.xip.io</tspan></text></g><g transform="translate(133.0 240.0)"><clipPath id="id13"><path d="M0 0 L92.0 0 L92.0 24.0 L0 24.0z"/></clipPath><text font-size="14" clip-path="url(#id13)" text-decoration="none" fill="#000000" font-family="Arial,Arial" font-style="normal" font-weight="normal"><tspan x="2.0" xml:space="preserve" y="15.0" textLength="81.0">192.168.33.2</tspan></text></g><g transform="translate(133.0 201.0)"><clipPath id="id14"><path d="M0 0 L112.0 0 L112.0 22.0 L0 22.0z"/></clipPath><text font-size="14" clip-path="url(#id14)" text-decoration="none" fill="#000000" font-family="Arial,Arial" font-style="normal" font-weight="normal"><tspan x="2.0" xml:space="preserve" y="15.0" textLength="101.0">10.0.3.* (DHCP)</tspan></text></g><g transform="translate(425.0 201.0)"><clipPath id="id15"><path d="M0 0 L112.0 0 L112.0 22.0 L0 22.0z"/></clipPath><text font-size="14" clip-path="url(#id15)" text-decoration="none" fill="#000000" font-family="Arial,Arial" font-style="normal" font-weight="normal"><tspan x="2.0" xml:space="preserve" y="15.0" textLength="101.0">10.0.3.* (DHCP)</tspan></text></g></g></svg>
